<?xml version="1.0" encoding="utf-8"?>
<!-- Generator: Adobe Illustrator 15.0.0, SVG Export Plug-In . SVG Version: 6.00 Build 0)  -->
<!DOCTYPE svg PUBLIC "-//W3C//DTD SVG 1.1//EN" "http://www.w3.org/Graphics/SVG/1.1/DTD/svg11.dtd">
<svg version="1.1" id="Layer_1" xmlns="http://www.w3.org/2000/svg" xmlns:xlink="http://www.w3.org/1999/xlink" x="0px" y="0px"
	 width="100px" height="11.64px" viewBox="0 0 100 11.64" enable-background="new 0 0 100 11.64" xml:space="preserve">
<rect x="14.852" y="0.227" fill="#FF8E00" width="2.709" height="11.188"/>
<path fill="#FF8E00" d="M77.55,11.416l3.279-0.002l-4.426-4.702c1.57-0.13,3.74-0.754,3.74-3.228c0-2.897-2.977-3.258-4.479-3.258
	h-8.812c-0.696,0-1.259,0.563-1.259,1.259v9.929h2.708V6.742h4.849L77.55,11.416 M68.301,2.07h7.157
	c0.942,0,1.976,0.278,1.976,1.414S76.4,4.898,75.458,4.898h-7.157V2.07z"/>
<path fill="#FF8E00" d="M58.259,1.485c-0.673-0.922-1.144-1.371-2.16-1.371s-1.481,0.449-2.154,1.371
	c-0.514,0.703-4.231,6.112-5.963,8.637L42.54,4.343l6.162-4.092h-3.737l-8.401,5.58V0.227h-2.709v11.188h2.709V8.312l3.829-2.543
	l5.315,5.646l4.462-0.002l1.651-2.415h8.552l1.651,2.415h3.084C65.109,11.414,58.931,2.408,58.259,1.485 M53.084,7.155l3.015-4.406
	l3.014,4.406H53.084z"/>
<path fill="#FF8E00" d="M1.26,0.227C0.564,0.227,0,0.79,0,1.485v9.929h2.708V6.742h10.759V4.897H2.708V2.07h10.759V0.227H1.26"/>
<path fill="#FF8E00" d="M91.281,4.959l-5.588-0.472c-1.626-0.136-2.077-0.433-2.077-1.045c0-1.511,3.239-1.633,4.492-1.633
	c1.79,0,4.17,0.44,5.812,1.148l0.671-1.898C92.794,0.307,90.138,0,88.165,0c-2.475,0-7.282,0.449-7.282,3.707
	c0,1.617,1.354,2.547,4.018,2.771l5.588,0.472c1.627,0.137,2.243,0.536,2.243,1.249c0,1.51-3.288,1.633-4.69,1.633
	c-2.416,0-4.948-0.72-6.582-1.667l-0.653,1.985c1.844,0.913,4.703,1.49,7.378,1.49c2.475,0,7.282-0.449,7.282-3.706
	C95.466,5.921,93.692,5.162,91.281,4.959"/>
<path fill="#FF8E00" d="M28.964,4.959l-5.588-0.472c-1.626-0.136-2.076-0.433-2.076-1.045c0-1.511,3.238-1.633,4.493-1.633
	c1.789,0,4.167,0.44,5.81,1.147l0.67-1.897C30.476,0.306,27.82,0,25.848,0c-2.474,0-7.283,0.448-7.283,3.707
	c0,1.617,1.354,2.547,4.018,2.771l5.588,0.472c1.626,0.137,2.243,0.536,2.243,1.249c0,1.51-3.289,1.633-4.69,1.633
	c-2.416,0-4.949-0.72-6.583-1.668l-0.652,1.986c1.844,0.912,4.703,1.49,7.377,1.49c2.474,0,7.282-0.449,7.282-3.707
	C33.148,5.92,31.374,5.162,28.964,4.959"/>
<path fill="#FF8E00" d="M97.858,0c-1.183,0-2.141,0.959-2.141,2.141c0,1.183,0.958,2.142,2.141,2.142S100,3.323,100,2.141
	C100,0.959,99.041,0,97.858,0 M97.858,3.964c-1.006,0-1.822-0.816-1.822-1.823c0-1.006,0.816-1.822,1.822-1.822
	c1.007,0,1.822,0.816,1.822,1.822C99.681,3.147,98.865,3.964,97.858,3.964"/>
<path fill="#FF8E00" d="M98.505,3.192h0.638l-0.859-0.913c0.305-0.025,0.726-0.146,0.726-0.627c0-0.563-0.578-0.635-0.871-0.635
	h-1.123c-0.136,0-0.245,0.11-0.245,0.246v1.929h0.527V2.284h0.386L98.505,3.192 M97.297,1.377h0.801
	c0.185,0,0.385,0.055,0.385,0.275s-0.2,0.273-0.385,0.273h-0.801V1.377z"/>
<rect fill="none" width="100" height="11.64"/>
</svg>
