<?xml version="1.0" encoding="UTF-8" standalone="no"?>
<svg
   version="1.1"
   width="108.05217pt"
   height="108.145pt"
   viewBox="0 0 108.05216 108.145"
   id="svg29"
   xmlns="http://www.w3.org/2000/svg"
   xmlns:svg="http://www.w3.org/2000/svg">
  <defs
     id="defs29" />
  <g
     id="layer_1"
     data-name="Warstwa 1"
     transform="matrix(1.3483171,0,0,1.3483171,-22.71402,-12.937109)">
    <path
       transform="matrix(1,0,0,-1,1,128.7504)"
       d="m 62.2094,110.4582 c 0,-4.8546 -0.7897,-17.3339 -4.4532,-20.6677 -1.7385,-1.582 -3.1346,1.9695 -3.7185,3.3693 -2.4888,5.9669 -2.2688,13.5144 -4.3608,19.7889 -0.349,1.0466 -0.7248,1.9545 -1.169,2.9225 -0.457,0.9959 -1.0415,1.8111 -1.429,2.6538 L 43.221,117.54 c 0.2934,-0.5434 0.6661,-0.9445 1.0811,-1.5077 3.5501,-4.8153 4.5746,-10.7244 4.4294,-16.7511 -0.7735,0.2007 -3.4211,1.3328 -5.4842,1.9159 -4.7137,1.3323 -6.3958,1.8567 -9.5819,5.1503 -1.2331,1.275 -2.4435,2.406 -3.9399,3.4084 -0.5649,-0.2515 -1.3799,-0.9425 -1.677,-1.4803 0.6543,-0.3265 1.4193,-0.4195 2.098,-0.8076 1.8861,-1.0783 2.9891,-2.6572 4.2978,-4.3534 -2.5985,-0.0556 -6.9162,1.3464 -10.1001,1.2325 -0.4093,-0.718 -1.237,-1.5871 -1.5874,-2.3542 1.2583,0.1613 2.5705,0.47 3.831,0.3725 3.4232,8e-4 7.3262,-0.9224 10.3527,-1.8811 3.7727,-1.1951 5.993,-1.0718 8.9694,-3.3089 6.8981,-5.1842 7.5631,-12.3735 7.3143,-20.601 -0.5279,0.4563 -0.9406,1.5928 -1.2946,2.1988 -1.2705,2.1733 -2.9549,4.1584 -4.6735,5.8326 -0.3379,0.3288 -0.4527,0.4317 -0.8127,0.8234 -0.3257,0.3546 -0.593,0.5001 -0.959,0.8175 -1.9133,1.6589 -3.869,3.0807 -6.3895,4.1125 -5.1667,2.1153 -9.1803,2.3145 -14.1917,6.6822 -1.4457,1.2597 -1.8833,2.5449 -2.8494,4.0807 -1.9346,-2.63 -1.2645,-3.0075 0.6721,-5.1678 3.5467,-3.9558 11.9704,-6.3774 16.6241,-9.1593 3.7307,-2.23 5.8977,-4.9655 8.219,-8.9703 1.2943,-2.2331 4.6684,-9.4453 4.6086,-12.4823 -2.9364,4.8359 -7.2221,2.4103 -11.1472,8.1238 -0.4913,0.7149 -1.0304,1.6523 -1.4885,2.4692 -3.3761,6.0245 -2.9999,8.5556 -10.3176,13.146 -2.6282,1.6486 -7.6229,4.2384 -10.6696,4.97 -0.3517,-0.7617 -0.6457,-1.2654 -0.803,-2.2839 0.2242,-0.1981 4.3585,-1.851 5.0383,-2.1634 4.1428,-1.904 10.173,-5.9196 12.124,-9.847 -0.9138,0.4414 -1.0556,0.8697 -2.4885,1.2059 -5.2418,1.2291 -9.5808,-1.9735 -14.646,4.7256 -0.2662,0.3521 -0.4893,0.6922 -0.8071,0.9451 -0.4923,-2.9353 -1.1375,-2.9092 0.6466,-4.1069 1.2643,-0.8487 2.9662,-1.5414 3.8333,-2.7654 -0.8257,-0.5622 -4.2188,-1.6705 -5.3969,-1.8664 l 0.1097,-2.607 0.7674,-0.0652 c 0.7506,0.1148 1.4799,0.4187 2.1622,0.7095 0.9239,0.3938 1.8445,0.8073 2.7513,1.2053 1.8032,0.7914 3.892,1.5628 6.1025,1.7144 5.0252,0.3447 8.2236,-2.6935 9.784,-5.9536 2.7893,-5.8269 3.5382,-4.4759 7.858,-7.6958 5.8325,-4.3478 6.9511,-10.9783 3.5336,-17.5283 -0.6692,-1.2824 -1.7835,-3.1836 -3.02,-3.8231 -0.597,-0.309 -1.2382,0.0471 -1.8363,0.2441 -12.7139,4.1885 -22.7435,14.6999 -25.1223,29.6019 -0.2517,0.0196 -2.016,-0.5017 -3.2993,-0.5202 0.5491,-6.3892 4.481,-14.515 8.3744,-19.1131 1.4086,-1.6637 2.8276,-3.3438 4.4842,-4.7894 6.4698,-5.6464 15.4831,-10.3261 27.3498,-10.3261 21.7706,0 40.4889,18.6217 39.9174,40.5403 l -0.2256,4.3217 C 95.1789,83.3193 92.7386,80.5992 92.6291,80.0186 92.5362,79.5249 92.6065,78.2124 92.5798,77.6024 92.0333,65.0585 85.3529,54.2951 75.0563,47.7961 c -2.8695,-1.8113 -9.7636,-4.934 -13.9385,-5.0479 0,6.277 -2.6507,13.3503 1.0749,17.9149 3.0705,3.7622 8.3914,5.9363 12.835,8.0377 5.2866,2.4998 8.8137,5.4575 12.2037,8.6692 1.7099,1.62 3.2655,3.4766 4.9711,5.3943 0.7832,0.8804 1.5486,1.8941 2.3397,2.8488 0.5624,0.6792 0.4062,1.0366 0.2498,2.0398 -0.1194,0.7645 -0.3152,1.491 -0.5956,2.1524 -0.4399,-0.6622 -0.7733,-1.4259 -1.2007,-2.1019 -0.4734,-0.7487 -0.9888,-1.4789 -1.4854,-2.0634 -0.8436,-0.9921 -2.3669,-2.7408 -4.0737,-3.0852 0.3838,1.5426 0.9686,3.062 1.2592,4.6602 0.8529,4.6939 0.735,10.2044 -0.4632,14.7693 -0.3614,1.376 -1.0174,1.8845 -1.7206,2.7805 -0.6171,0.7866 -1.3272,1.7958 -2.0603,2.3627 0.1834,-2.0985 2.2391,-5.5562 2.2391,-13.1774 0,-7.3902 -3.471,-14.5613 -9.1219,-18.9247 -1.3135,-1.0142 -2.4695,-1.9893 -4.0147,-2.9415 -4.6153,-2.8437 -5.5678,-2.7706 -9.3157,-4.7367 -0.7538,-0.3954 -1.5305,-0.9167 -2.1428,-1.4043 -0.6205,-0.4938 -1.3583,-1.3243 -1.9921,-1.5879 -1.8326,1.6404 -0.9026,4.2984 0.4192,6.0276 3.3061,4.3248 6.8763,3.9639 9.9074,16.0072 1.4267,5.6682 2.0789,11.2178 5.5017,16.06 1.3108,1.8544 2.5164,3.1067 4.2208,4.5088 0.7141,0.5873 1.9948,1.2874 2.5328,1.8626 -0.2943,0.6914 -2.0472,1.9454 -2.6,2.2637 -1.3342,-0.788 -2.7056,-2.2084 -3.6958,-3.3618 -3.467,-4.0388 -6.4581,-8.0402 -7.6048,-13.8141 -1.1145,-5.6121 -3.0356,-17.4858 -9.4784,-19.0335 -0.9295,1.2053 -1.4449,3.9002 -1.2493,5.847 0.1701,1.6894 1.4704,3.5507 2.1371,5.131 1.3884,3.2899 2.4879,7.4279 3.3851,11.0769 0.6273,2.5518 0.6506,3.2307 1.9556,5.1392 1.0168,1.4871 1.9687,2.7669 3.0453,4.1843 1.2869,1.6945 5.4476,6.7495 6.0106,8.4339 -0.6135,0.6097 -1.5993,1.1837 -2.6901,1.3416 -1.222,-3.0024 -4.8884,-7.9563 -7.1439,-9.0153 l 0.1449,3.1706 c 0.0518,1.6446 -0.3578,7.3817 -1.0712,8.49 -0.7991,0.2843 -2.0467,0.4879 -2.9665,0.4805 1.0465,-2.8658 1.3453,-5.3099 1.3453,-8.697"
       fill="#414a14"
       fill-rule="evenodd"
       id="path2" />
    <path
       transform="matrix(1,0,0,-1,1,128.7504)"
       d="m 84.8537,91.3663 c 0.5057,2.9801 -0.6304,5.9255 -2.1271,7.5648 -0.8065,0.8839 -1.497,1.5761 -2.7896,2.2584 -0.8456,0.4462 -2.7349,1.1786 -3.8894,1.0063 -0.8158,-5.7614 3.5257,-10.6243 8.8061,-10.8295"
       fill="#73b00b"
       fill-rule="evenodd"
       id="path3" />
    <path
       transform="matrix(1,0,0,-1,1,128.7504)"
       d="m 60.6883,105.7759 c 0.2682,3.4115 -0.5136,5.6753 -2.2447,7.6159 -1.2325,1.3816 -3.6031,3.3094 -6.5906,3.1997 -0.3313,-3.5002 0.5463,-5.5321 2.2079,-7.579 1.1288,-1.3904 3.7316,-3.2717 6.6274,-3.2366"
       fill="#73b00b"
       fill-rule="evenodd"
       id="path4" />
    <path
       transform="matrix(1,0,0,-1,1,128.7504)"
       d="m 45.2806,101.8168 c 0.8853,3.1498 1.294,5.074 -0.2313,8.1419 -0.8988,1.8088 -3.098,4.1457 -5.4215,4.6525 -0.8235,-3.1495 -1.3689,-5.0683 0.2387,-8.2009 0.6704,-1.307 1.2738,-1.9066 2.1367,-2.7723 0.5703,-0.5723 2.1492,-1.6602 3.2774,-1.8212"
       fill="#73b00b"
       fill-rule="evenodd"
       id="path5" />
    <path
       transform="matrix(1,0,0,-1,1,128.7504)"
       d="m 19.7895,71.3134 c 3.9736,-1.798 7.4064,-2.1642 11.2039,1.0404 0.5933,0.5006 1.8117,1.9012 2.1416,2.9055 -1.6554,1.5406 -5.6826,1.6968 -8.0787,0.845 -1.3232,-0.4706 -2.3137,-1.1653 -3.1629,-1.8817 -0.5865,-0.4943 -1.7714,-1.9244 -2.1039,-2.9092"
       fill="#3d8103"
       fill-rule="evenodd"
       id="path6" />
    <path
       transform="matrix(1,0,0,-1,1,128.7504)"
       d="m 76.2446,75.1842 c 0.6579,0.4192 1.5151,2.1662 1.8383,3.1447 1.7926,5.4301 -2.086,10.3581 -3.6117,10.5679 -3.6759,-4.5338 -2.2555,-11.1136 1.7734,-13.7126"
       fill="#3d8103"
       fill-rule="evenodd"
       id="path7" />
    <path
       transform="matrix(1,0,0,-1,1,128.7504)"
       d="m 78.7351,68.4592 c 2.2329,-1.2693 4.5842,-2.0264 7.5918,-1.1055 2.457,0.7523 4.3991,2.458 5.3016,4.3583 -1.3391,1.6713 -7.3199,2.5611 -10.7495,-0.5417 -0.5865,-0.5304 -1.8156,-1.7549 -2.1439,-2.7111"
       fill="#3d8103"
       fill-rule="evenodd"
       id="path8" />
    <path
       transform="matrix(1,0,0,-1,1,128.7504)"
       d="m 77.2611,54.4141 c 0.068,2.8965 -0.9028,4.9839 -2.3063,6.4582 -1.0457,1.0987 -3.5668,2.6447 -5.9873,2.4276 -0.809,-3.9489 2.8043,-8.7948 8.2936,-8.8858"
       fill="#3d8103"
       fill-rule="evenodd"
       id="path9" />
    <path
       transform="matrix(1,0,0,-1,1,128.7504)"
       d="m 59.1029,94.2253 c 1.0154,2.2023 1.5426,4.1621 0.5423,6.8641 -0.6627,1.7898 -2.444,3.907 -4.1363,4.407 -2.4528,-3.0336 -0.7367,-9.8795 3.594,-11.2711"
       fill="#73b00b"
       fill-rule="evenodd"
       id="path10" />
    <path
       transform="matrix(1,0,0,-1,1,128.7504)"
       d="m 73.6211,65.2997 c 0.4028,-1.6945 2.6326,-3.5277 4.2872,-4.204 2.4891,-1.0174 4.7154,-0.6222 6.9114,0.4099 -0.3532,1.7688 -2.7122,3.5886 -4.29,4.2616 -1.9491,0.8317 -5.3728,0.8056 -6.9086,-0.4675"
       fill="#3d8103"
       fill-rule="evenodd"
       id="path11" />
    <path
       transform="matrix(1,0,0,-1,1,128.7504)"
       d="m 35.6941,92.717 c 0.1965,2.8902 -0.6358,4.773 -2.0755,6.3519 -1.5335,1.6821 -4.964,3.2017 -5.6423,2.5038 -0.4312,-0.4433 0.1437,-3.0234 0.3435,-3.5711 0.4232,-1.159 0.9278,-1.8986 1.569,-2.6594 0.8991,-1.0661 3.4169,-2.9291 5.8053,-2.6252"
       fill="#73b00b"
       fill-rule="evenodd"
       id="path12" />
    <path
       transform="matrix(1,0,0,-1,1,128.7504)"
       d="m 37.3476,96.6787 c 0.4107,-2.2462 5.1435,-6.6753 11.1963,-3.8103 -0.9519,3.8338 -7.6703,6.4239 -11.1963,3.8103"
       fill="#73b00b"
       fill-rule="evenodd"
       id="path13" />
    <path
       transform="matrix(1,0,0,-1,1,128.7504)"
       d="m 27.2857,65.1325 c 4.7064,-2.7096 10.4397,0.5471 11.2258,3.8821 -2.1969,0.6548 -3.6726,1.6205 -6.9695,0.333 -1.7422,-0.6803 -3.8027,-2.5285 -4.2563,-4.2151"
       fill="#3d8103"
       fill-rule="evenodd"
       id="path14" />
    <path
       transform="matrix(1,0,0,-1,1,128.7504)"
       d="m 34.3987,57.5674 c 5.8862,-0.4961 9.3592,4.6721 8.8342,7.6915 -5.5174,0.368 -9.2288,-4.068 -8.8342,-7.6915"
       fill="#3d8103"
       fill-rule="evenodd"
       id="path15" />
    <path
       transform="matrix(1,0,0,-1,1,128.7504)"
       d="m 63.5576,52.0798 c 2.8783,1.3785 4.0651,6.8324 1.5006,9.4176 -1.2886,-0.6687 -2.4803,-2.2666 -2.8372,-4.1313 -0.36,-1.8802 0.1469,-4.3698 1.3366,-5.2863"
       fill="#3d8103"
       fill-rule="evenodd"
       id="path16" />
    <path
       transform="matrix(1,0,0,-1,1,128.7504)"
       d="m 83.3672,84.09 c 0.3382,2.5654 0.0448,3.6567 -1.1585,5.4545 -0.7268,1.0859 -2.3125,2.3062 -4.3342,2.5154 -0.4736,-3.0747 0.4592,-5.5213 2.914,-7.0747 0.7135,-0.4512 1.6146,-0.7857 2.5787,-0.8952"
       fill="#73b00b"
       fill-rule="evenodd"
       id="path17" />
    <path
       transform="matrix(1,0,0,-1,1,128.7504)"
       d="m 27.1329,82.1163 c 0.3377,2.9633 -2.7819,6.4426 -7.4392,6.1211 0.042,-1.9851 1.2107,-3.8389 2.1784,-4.5949 1.4346,-1.1206 2.8324,-1.7448 5.2608,-1.5262"
       fill="#73b00b"
       fill-rule="evenodd"
       id="path18" />
    <path
       transform="matrix(1,0,0,-1,1,128.7504)"
       d="m 45.0045,53.7758 c 1.1214,0.4181 2.4951,2.3972 2.8429,4.0564 0.4963,2.3683 -0.2846,3.8505 -1.2464,5.377 -3.0572,-1.3808 -4.1014,-6.9262 -1.5965,-9.4334"
       fill="#3d8103"
       fill-rule="evenodd"
       id="path19" />
    <path
       transform="matrix(1,0,0,-1,1,128.7504)"
       d="m 51.6969,83.018 c 0.5623,2.209 0.5561,3.6992 -0.4791,5.5485 -0.6395,1.1424 -2.3117,2.7927 -4.0368,2.9923 -0.5037,-2.2598 -0.5604,-3.551 0.5301,-5.5389 0.665,-1.2121 2.1965,-2.6598 3.9858,-3.0019"
       fill="#73b00b"
       fill-rule="evenodd"
       id="path20" />
    <path
       transform="matrix(1,0,0,-1,1,128.7504)"
       d="m 64.4202,97.361 c -0.0034,-1.6478 0.5675,-2.9489 1.2928,-3.9348 1.2501,0.5457 2.5424,2.1694 2.9532,4.006 0.4221,1.8878 -0.0468,4.2885 -1.1523,5.3895 -1.5112,-0.5723 -3.0886,-3.0388 -3.0937,-5.4607"
       fill="#73b00b"
       fill-rule="evenodd"
       id="path21" />
    <path
       transform="matrix(1,0,0,-1,1,128.7504)"
       d="m 49.4291,70.5611 c 0.1058,2.0109 -1.2208,3.6394 -2.1685,4.5 -1.3586,1.2342 -2.9075,1.7507 -5.2781,1.567 0.169,-3.5776 3.4489,-6.7269 7.4466,-6.067"
       fill="#3d8103"
       fill-rule="evenodd"
       id="path22" />
    <path
       transform="matrix(1,0,0,-1,1,128.7504)"
       d="m 67.7962,70.3392 c 1.4882,0.2885 2.897,1.9987 3.4832,3.3375 1.0344,2.3624 0.4445,3.6507 -0.1984,5.7016 -1.3969,-0.3305 -2.9534,-2.0716 -3.4877,-3.3761 -0.9,-2.1962 -0.567,-3.6516 0.2029,-5.663"
       fill="#3d8103"
       fill-rule="evenodd"
       id="path23" />
    <path
       transform="matrix(1,0,0,-1,1,128.7504)"
       d="m 60.1396,77.4309 c 1.4173,0.3056 2.9174,2.0687 3.4713,3.3647 0.9938,2.3253 0.4833,3.5969 -0.1979,5.6631 -1.4802,-0.3223 -2.8834,-2.0084 -3.473,-3.3492 -1.021,-2.321 -0.453,-3.6515 0.1996,-5.6786"
       fill="#3d8103"
       fill-rule="evenodd"
       id="path24" />
    <path
       transform="matrix(1,0,0,-1,1,128.7504)"
       d="m 39.8205,77.0074 c 1.0985,0.6106 2.0639,2.5744 2.1691,3.9852 0.1386,1.8607 -0.6131,3.6519 -1.6234,4.4377 -0.9924,-0.9732 -1.9463,-1.8763 -2.1311,-3.9277 -0.1635,-1.8179 0.578,-3.7471 1.5854,-4.4952"
       fill="#3d8103"
       fill-rule="evenodd"
       id="path25" />
    <path
       transform="matrix(1,0,0,-1,1,128.7504)"
       d="m 91.3873,86.9366 c 3.1453,2.321 2.0608,6.7141 0.5456,7.7854 -0.8784,-0.4275 -1.8317,-1.9834 -2.0109,-3.5136 -0.197,-1.6841 0.5109,-3.6264 1.4653,-4.2718"
       fill="#73b00b"
       fill-rule="evenodd"
       id="path26" />
    <path
       transform="matrix(1,0,0,-1,1,128.7504)"
       d="m 84.7148,99.483 c 0.4051,1.7949 0.5318,3.0376 -0.377,4.6077 -0.5655,0.9763 -1.7575,2.1938 -3.1904,2.4469 -0.4,-1.7116 -0.54,-3.1215 0.3518,-4.604 0.6242,-1.0372 1.6648,-2.1827 3.2156,-2.4506"
       fill="#73b00b"
       fill-rule="evenodd"
       id="path27" />
    <path
       transform="matrix(1,0,0,-1,1,128.7504)"
       d="m 74.1214,106.4276 c 0.9908,0.3835 2.0722,1.8357 2.4075,3.1989 0.358,1.4536 -0.0246,3.7522 -0.9663,4.4703 -2.3176,-1.1914 -3.3934,-4.9491 -1.4412,-7.6692"
       fill="#73b00b"
       fill-rule="evenodd"
       id="path28" />
    <path
       transform="matrix(1,0,0,-1,1,128.7504)"
       d="m 66.9501,110.05 c 2.3646,1.033 3.5059,5.19 1.5188,7.6677 -0.9987,-0.3123 -2.0897,-1.9323 -2.3925,-3.2215 -0.5088,-2.1674 0.2163,-3.0008 0.8737,-4.4462"
       fill="#73b00b"
       fill-rule="evenodd"
       id="path29" />
  </g>
</svg>
