<?xml version="1.0" encoding="UTF-8"?> <!-- Generator: Adobe Illustrator 22.0.0, SVG Export Plug-In . SVG Version: 6.00 Build 0) --> <svg xmlns="http://www.w3.org/2000/svg" xmlns:xlink="http://www.w3.org/1999/xlink" id="Capa_1" x="0px" y="0px" viewBox="0 0 300 75" style="enable-background:new 0 0 300 75;" xml:space="preserve"> <style type="text/css"> .st0{clip-path:url(#SVGID_2_);} .st1{fill:#B2292E;} </style> <g> <defs> <rect id="SVGID_1_" x="-445.3" y="-383.4" width="1190.6" height="841.9"></rect> </defs> <clipPath id="SVGID_2_"> <use xlink:href="#SVGID_1_" style="overflow:visible;"></use> </clipPath> <g class="st0"> <path d="M118.1,68.6c0.3,0,0.6,0,0.9-0.1c0.3-0.1,0.5-0.2,0.7-0.4c0.2-0.2,0.3-0.4,0.4-0.6c0.1-0.2,0.1-0.5,0.1-0.8 c0-0.6-0.2-1-0.5-1.3c-0.3-0.3-0.9-0.5-1.6-0.5h-1.4v3.7H118.1z M118.1,64c0.6,0,1,0.1,1.5,0.2c0.4,0.1,0.8,0.3,1,0.6 c0.3,0.2,0.5,0.5,0.6,0.9c0.1,0.3,0.2,0.7,0.2,1.1c0,0.4-0.1,0.8-0.2,1.1c-0.1,0.3-0.4,0.6-0.6,0.9c-0.3,0.2-0.6,0.4-1,0.6 c-0.4,0.1-0.9,0.2-1.4,0.2h-1.4v3.3h-1.2V64H118.1z"></path> <path d="M126.6,69c0-0.3,0-0.5-0.1-0.7c-0.1-0.2-0.2-0.4-0.3-0.6c-0.1-0.2-0.3-0.3-0.5-0.4c-0.2-0.1-0.4-0.1-0.7-0.1 c-0.5,0-0.9,0.2-1.3,0.5c-0.3,0.3-0.5,0.7-0.6,1.3H126.6z M127.5,72c-0.1,0.2-0.3,0.3-0.5,0.4c-0.2,0.1-0.4,0.2-0.6,0.3 c-0.2,0.1-0.4,0.1-0.7,0.2c-0.2,0-0.5,0.1-0.7,0.1c-0.4,0-0.8-0.1-1.2-0.2c-0.4-0.1-0.7-0.4-0.9-0.6c-0.3-0.3-0.5-0.6-0.6-1.1 c-0.2-0.4-0.2-0.9-0.2-1.4c0-0.4,0.1-0.8,0.2-1.2c0.1-0.4,0.3-0.7,0.6-1c0.3-0.3,0.6-0.5,0.9-0.7c0.4-0.2,0.8-0.2,1.2-0.2 c0.4,0,0.7,0.1,1,0.2c0.3,0.1,0.6,0.3,0.8,0.6c0.2,0.2,0.4,0.5,0.5,0.9c0.1,0.3,0.2,0.7,0.2,1.2c0,0.2,0,0.3-0.1,0.4 c0,0.1-0.1,0.1-0.2,0.1h-4.2c0,0.4,0.1,0.7,0.2,1c0.1,0.3,0.2,0.5,0.4,0.7c0.2,0.2,0.4,0.3,0.6,0.4c0.2,0.1,0.5,0.1,0.8,0.1 c0.3,0,0.5,0,0.7-0.1c0.2-0.1,0.4-0.1,0.5-0.2c0.1-0.1,0.3-0.1,0.4-0.2c0.1-0.1,0.2-0.1,0.3-0.1c0.1,0,0.2,0,0.2,0.1L127.5,72z"></path> <path d="M130,67.8c0.2-0.4,0.4-0.8,0.7-1c0.3-0.2,0.6-0.4,1.1-0.4c0.1,0,0.3,0,0.4,0c0.1,0,0.2,0.1,0.3,0.1l-0.1,0.8 c0,0.1-0.1,0.2-0.2,0.2c-0.1,0-0.1,0-0.3,0c-0.1,0-0.2,0-0.4,0c-0.2,0-0.4,0-0.5,0.1c-0.2,0.1-0.3,0.1-0.4,0.3 c-0.1,0.1-0.2,0.3-0.3,0.4c-0.1,0.2-0.2,0.4-0.3,0.6v4h-1.1v-6.3h0.6c0.1,0,0.2,0,0.2,0.1c0,0,0.1,0.1,0.1,0.2L130,67.8z"></path> <path d="M133.9,72.9v-5.3l-0.7-0.1c-0.1,0-0.2,0-0.2-0.1c-0.1,0-0.1-0.1-0.1-0.2v-0.5h1v-0.6c0-0.4,0.1-0.7,0.1-1 c0.1-0.3,0.3-0.5,0.4-0.7c0.2-0.2,0.4-0.3,0.7-0.4c0.3-0.1,0.6-0.1,0.9-0.1c0.3,0,0.5,0,0.8,0.1l0,0.5c0,0.1-0.1,0.2-0.2,0.2 c-0.1,0-0.2,0-0.4,0c-0.2,0-0.4,0-0.5,0.1c-0.2,0.1-0.3,0.1-0.4,0.2c-0.1,0.1-0.2,0.3-0.3,0.4c-0.1,0.2-0.1,0.4-0.1,0.7v0.6h1.8 v0.8H135v5.4H133.9z"></path> <path d="M140.3,72.1c0.6,0,1.1-0.2,1.4-0.6c0.3-0.4,0.5-1,0.5-1.7c0-0.8-0.2-1.3-0.5-1.8c-0.3-0.4-0.8-0.6-1.4-0.6 c-0.3,0-0.6,0.1-0.8,0.2c-0.2,0.1-0.4,0.3-0.6,0.5c-0.2,0.2-0.3,0.5-0.4,0.8c-0.1,0.3-0.1,0.6-0.1,1c0,0.7,0.1,1.3,0.5,1.7 C139.2,71.9,139.6,72.1,140.3,72.1 M140.3,66.5c0.5,0,0.9,0.1,1.2,0.2c0.4,0.2,0.7,0.4,0.9,0.6c0.3,0.3,0.5,0.6,0.6,1 c0.1,0.4,0.2,0.8,0.2,1.3c0,0.5-0.1,0.9-0.2,1.3c-0.1,0.4-0.3,0.7-0.6,1c-0.3,0.3-0.6,0.5-0.9,0.6c-0.4,0.2-0.8,0.2-1.2,0.2 c-0.5,0-0.9-0.1-1.3-0.2c-0.4-0.2-0.7-0.4-0.9-0.6c-0.3-0.3-0.5-0.6-0.6-1c-0.1-0.4-0.2-0.8-0.2-1.3c0-0.5,0.1-0.9,0.2-1.3 c0.1-0.4,0.3-0.7,0.6-1c0.3-0.3,0.6-0.5,0.9-0.6C139.4,66.6,139.8,66.5,140.3,66.5"></path> <path d="M145.7,67.8c0.2-0.4,0.4-0.8,0.7-1c0.3-0.2,0.6-0.4,1.1-0.4c0.1,0,0.3,0,0.4,0c0.1,0,0.2,0.1,0.3,0.1l-0.1,0.8 c0,0.1-0.1,0.2-0.2,0.2c-0.1,0-0.1,0-0.2,0c-0.1,0-0.2,0-0.4,0c-0.2,0-0.4,0-0.5,0.1c-0.2,0.1-0.3,0.1-0.4,0.3 c-0.1,0.1-0.2,0.3-0.3,0.4c-0.1,0.2-0.2,0.4-0.3,0.6v4h-1.1v-6.3h0.6c0.1,0,0.2,0,0.2,0.1c0,0,0.1,0.1,0.1,0.2L145.7,67.8z"></path> <path d="M149.2,72.9v-6.3h0.7c0.2,0,0.3,0.1,0.3,0.2l0.1,0.6c0.2-0.3,0.5-0.5,0.8-0.7c0.3-0.2,0.6-0.3,1-0.3c0.4,0,0.8,0.1,1,0.4 c0.3,0.2,0.4,0.6,0.6,1c0.1-0.2,0.2-0.4,0.4-0.6c0.1-0.2,0.3-0.3,0.5-0.4c0.2-0.1,0.4-0.2,0.6-0.2c0.2,0,0.4-0.1,0.6-0.1 c0.3,0,0.6,0.1,0.9,0.2c0.3,0.1,0.5,0.3,0.7,0.5c0.2,0.2,0.3,0.5,0.4,0.7c0.1,0.3,0.1,0.6,0.1,1v4h-1.1v-4c0-0.5-0.1-0.9-0.3-1.1 c-0.2-0.3-0.5-0.4-0.9-0.4c-0.2,0-0.4,0-0.5,0.1c-0.2,0.1-0.3,0.2-0.4,0.3c-0.1,0.1-0.2,0.3-0.3,0.5c-0.1,0.2-0.1,0.4-0.1,0.7v4 h-1.1v-4c0-0.5-0.1-0.9-0.3-1.1c-0.2-0.3-0.5-0.4-0.9-0.4c-0.3,0-0.5,0.1-0.8,0.2c-0.2,0.2-0.4,0.3-0.6,0.6v4.7H149.2z"></path> <path d="M162.8,70c-0.5,0-0.9,0.1-1.3,0.1c-0.4,0.1-0.6,0.1-0.9,0.2c-0.2,0.1-0.4,0.2-0.5,0.4c-0.1,0.1-0.2,0.3-0.2,0.5 c0,0.2,0,0.3,0.1,0.4c0.1,0.1,0.1,0.2,0.2,0.3c0.1,0.1,0.2,0.1,0.3,0.2c0.1,0,0.3,0.1,0.4,0.1c0.2,0,0.4,0,0.5-0.1 c0.2,0,0.3-0.1,0.5-0.2c0.1-0.1,0.3-0.2,0.4-0.3c0.1-0.1,0.3-0.2,0.4-0.4V70z M159.2,67.5c0.3-0.3,0.7-0.6,1.1-0.8 c0.4-0.2,0.8-0.2,1.3-0.2c0.3,0,0.7,0.1,0.9,0.2c0.3,0.1,0.5,0.3,0.7,0.5c0.2,0.2,0.3,0.5,0.4,0.8c0.1,0.3,0.1,0.6,0.1,1v4h-0.5 c-0.1,0-0.2,0-0.3-0.1c-0.1,0-0.1-0.1-0.1-0.2l-0.1-0.6c-0.2,0.2-0.3,0.3-0.5,0.4c-0.2,0.1-0.3,0.2-0.5,0.3 c-0.2,0.1-0.4,0.1-0.6,0.2c-0.2,0-0.4,0.1-0.7,0.1c-0.2,0-0.5,0-0.7-0.1c-0.2-0.1-0.4-0.2-0.6-0.3c-0.2-0.1-0.3-0.3-0.4-0.5 c-0.1-0.2-0.1-0.5-0.1-0.7c0-0.3,0.1-0.5,0.2-0.7c0.1-0.2,0.4-0.4,0.7-0.6c0.3-0.2,0.7-0.3,1.2-0.4c0.5-0.1,1.1-0.2,1.8-0.2v-0.5 c0-0.5-0.1-0.9-0.3-1.1c-0.2-0.2-0.5-0.4-0.9-0.4c-0.3,0-0.5,0-0.7,0.1c-0.2,0.1-0.3,0.1-0.5,0.2c-0.1,0.1-0.3,0.2-0.4,0.2 c-0.1,0.1-0.2,0.1-0.3,0.1c-0.1,0-0.1,0-0.2-0.1c-0.1,0-0.1-0.1-0.1-0.1L159.2,67.5z"></path> <path d="M166.6,67.5c0.1-0.2,0.3-0.3,0.4-0.4c0.2-0.1,0.3-0.2,0.5-0.3c0.2-0.1,0.4-0.2,0.5-0.2c0.2,0,0.4-0.1,0.6-0.1 c0.3,0,0.6,0.1,0.9,0.2c0.3,0.1,0.5,0.3,0.7,0.5c0.2,0.2,0.3,0.5,0.4,0.8c0.1,0.3,0.1,0.6,0.1,1v4h-1.1v-4c0-0.5-0.1-0.8-0.3-1.1 c-0.2-0.3-0.5-0.4-1-0.4c-0.3,0-0.6,0.1-0.9,0.2c-0.3,0.2-0.5,0.4-0.8,0.6v4.6h-1.1v-6.3h0.7c0.2,0,0.3,0.1,0.3,0.2L166.6,67.5z"></path> <path d="M176.8,67.7c0,0-0.1,0.1-0.1,0.1c0,0-0.1,0-0.1,0c-0.1,0-0.1,0-0.2-0.1c-0.1,0-0.2-0.1-0.3-0.2c-0.1-0.1-0.2-0.1-0.4-0.2 c-0.2-0.1-0.4-0.1-0.6-0.1c-0.3,0-0.6,0.1-0.8,0.2c-0.2,0.1-0.4,0.3-0.6,0.5c-0.2,0.2-0.3,0.5-0.4,0.7c-0.1,0.3-0.1,0.6-0.1,1 c0,0.4,0,0.7,0.1,1c0.1,0.3,0.2,0.5,0.4,0.7c0.2,0.2,0.4,0.4,0.6,0.5c0.2,0.1,0.5,0.2,0.8,0.2c0.3,0,0.5,0,0.7-0.1 c0.2-0.1,0.3-0.1,0.4-0.2c0.1-0.1,0.2-0.1,0.3-0.2c0.1-0.1,0.1-0.1,0.2-0.1c0.1,0,0.2,0,0.2,0.1l0.3,0.4c-0.1,0.2-0.3,0.3-0.5,0.4 c-0.2,0.1-0.4,0.2-0.6,0.3c-0.2,0.1-0.4,0.1-0.6,0.2c-0.2,0-0.4,0.1-0.7,0.1c-0.4,0-0.8-0.1-1.1-0.2c-0.3-0.1-0.6-0.4-0.9-0.6 c-0.2-0.3-0.4-0.6-0.6-1c-0.1-0.4-0.2-0.9-0.2-1.4c0-0.5,0.1-0.9,0.2-1.3c0.1-0.4,0.3-0.7,0.6-1c0.3-0.3,0.6-0.5,0.9-0.7 c0.4-0.2,0.8-0.2,1.3-0.2c0.4,0,0.8,0.1,1.2,0.2c0.3,0.1,0.6,0.3,0.9,0.6L176.8,67.7z"></path> <path d="M182.5,69c0-0.3,0-0.5-0.1-0.7c-0.1-0.2-0.2-0.4-0.3-0.6c-0.1-0.2-0.3-0.3-0.5-0.4c-0.2-0.1-0.4-0.1-0.7-0.1 c-0.5,0-1,0.2-1.3,0.5c-0.3,0.3-0.5,0.7-0.6,1.3H182.5z M183.4,72c-0.1,0.2-0.3,0.3-0.5,0.4c-0.2,0.1-0.4,0.2-0.6,0.3 c-0.2,0.1-0.4,0.1-0.7,0.2c-0.2,0-0.5,0.1-0.7,0.1c-0.4,0-0.8-0.1-1.2-0.2c-0.4-0.1-0.7-0.4-0.9-0.6c-0.3-0.3-0.5-0.6-0.6-1.1 c-0.1-0.4-0.2-0.9-0.2-1.4c0-0.4,0.1-0.8,0.2-1.2c0.1-0.4,0.3-0.7,0.6-1c0.3-0.3,0.6-0.5,0.9-0.7c0.4-0.2,0.8-0.2,1.2-0.2 c0.4,0,0.7,0.1,1,0.2c0.3,0.1,0.6,0.3,0.8,0.6c0.2,0.2,0.4,0.5,0.6,0.9c0.1,0.3,0.2,0.7,0.2,1.2c0,0.2,0,0.3-0.1,0.4 c0,0.1-0.1,0.1-0.2,0.1H179c0,0.4,0.1,0.7,0.2,1c0.1,0.3,0.2,0.5,0.4,0.7c0.2,0.2,0.4,0.3,0.6,0.4c0.2,0.1,0.5,0.1,0.8,0.1 c0.3,0,0.5,0,0.7-0.1c0.2-0.1,0.4-0.1,0.5-0.2c0.1-0.1,0.3-0.1,0.4-0.2c0.1-0.1,0.2-0.1,0.3-0.1c0.1,0,0.2,0,0.2,0.1L183.4,72z"></path> <path d="M189.2,72.9h-1.1v-6.3h1.1V72.9z M189.4,64.6c0,0.1,0,0.2-0.1,0.3c0,0.1-0.1,0.2-0.2,0.2c-0.1,0.1-0.2,0.1-0.3,0.2 c-0.1,0-0.2,0.1-0.3,0.1c-0.1,0-0.2,0-0.3-0.1c-0.1,0-0.2-0.1-0.2-0.2c-0.1-0.1-0.1-0.2-0.2-0.2c0-0.1-0.1-0.2-0.1-0.3 c0-0.1,0-0.2,0.1-0.3c0-0.1,0.1-0.2,0.2-0.3c0.1-0.1,0.1-0.1,0.2-0.2c0.1,0,0.2-0.1,0.3-0.1c0.1,0,0.2,0,0.3,0.1 c0.1,0,0.2,0.1,0.3,0.2c0.1,0.1,0.1,0.2,0.2,0.3C189.4,64.4,189.4,64.5,189.4,64.6"></path> <path d="M192,67.5c0.1-0.2,0.3-0.3,0.4-0.4c0.2-0.1,0.3-0.2,0.5-0.3c0.2-0.1,0.4-0.2,0.5-0.2c0.2,0,0.4-0.1,0.6-0.1 c0.3,0,0.6,0.1,0.9,0.2c0.3,0.1,0.5,0.3,0.7,0.5c0.2,0.2,0.3,0.5,0.4,0.8c0.1,0.3,0.1,0.6,0.1,1v4h-1.1v-4c0-0.5-0.1-0.8-0.3-1.1 c-0.2-0.3-0.5-0.4-1-0.4c-0.3,0-0.6,0.1-0.9,0.2c-0.3,0.2-0.5,0.4-0.8,0.6v4.6H191v-6.3h0.7c0.2,0,0.3,0.1,0.3,0.2L192,67.5z"></path> <path d="M206.2,66.6l-3.5,8.1c0,0.1-0.1,0.2-0.1,0.2c-0.1,0-0.1,0.1-0.3,0.1h-0.8l1.2-2.5l-2.6-5.9h1c0.1,0,0.2,0,0.2,0.1 c0.1,0.1,0.1,0.1,0.1,0.2l1.7,4c0.1,0.2,0.1,0.4,0.2,0.5c0.1-0.2,0.1-0.4,0.2-0.6l1.6-4c0-0.1,0.1-0.1,0.1-0.2 c0.1,0,0.1-0.1,0.2-0.1H206.2z"></path> <path d="M209.6,72.1c0.6,0,1.1-0.2,1.4-0.6c0.3-0.4,0.5-1,0.5-1.7c0-0.8-0.1-1.3-0.5-1.8c-0.3-0.4-0.8-0.6-1.4-0.6 c-0.3,0-0.6,0.1-0.8,0.2c-0.2,0.1-0.4,0.3-0.6,0.5c-0.2,0.2-0.3,0.5-0.3,0.8c-0.1,0.3-0.1,0.6-0.1,1c0,0.7,0.2,1.3,0.5,1.7 C208.5,71.9,209,72.1,209.6,72.1 M209.6,66.5c0.5,0,0.9,0.1,1.2,0.2c0.4,0.2,0.7,0.4,0.9,0.6c0.3,0.3,0.5,0.6,0.6,1 c0.1,0.4,0.2,0.8,0.2,1.3c0,0.5-0.1,0.9-0.2,1.3c-0.1,0.4-0.3,0.7-0.6,1c-0.3,0.3-0.6,0.5-0.9,0.6c-0.4,0.2-0.8,0.2-1.2,0.2 c-0.5,0-0.9-0.1-1.2-0.2c-0.4-0.2-0.7-0.4-0.9-0.6c-0.3-0.3-0.5-0.6-0.6-1c-0.1-0.4-0.2-0.8-0.2-1.3c0-0.5,0.1-0.9,0.2-1.3 c0.1-0.4,0.3-0.7,0.6-1c0.3-0.3,0.6-0.5,0.9-0.6C208.8,66.6,209.2,66.5,209.6,66.5"></path> <path d="M219.2,66.6v6.3h-0.7c-0.2,0-0.3-0.1-0.3-0.2l-0.1-0.7c-0.3,0.3-0.6,0.5-0.9,0.7c-0.3,0.2-0.7,0.3-1.2,0.3 c-0.3,0-0.6-0.1-0.9-0.2c-0.3-0.1-0.5-0.3-0.7-0.5c-0.2-0.2-0.3-0.5-0.4-0.8c-0.1-0.3-0.1-0.6-0.1-1v-4h1.1v4 c0,0.5,0.1,0.8,0.3,1.1c0.2,0.3,0.5,0.4,1,0.4c0.3,0,0.6-0.1,0.9-0.2c0.3-0.2,0.5-0.4,0.8-0.6v-4.6H219.2z"></path> <path d="M222,67.8c0.2-0.4,0.4-0.8,0.7-1c0.3-0.2,0.6-0.4,1.1-0.4c0.1,0,0.3,0,0.4,0c0.1,0,0.2,0.1,0.3,0.1l-0.1,0.8 c0,0.1-0.1,0.2-0.2,0.2c-0.1,0-0.1,0-0.3,0c-0.1,0-0.2,0-0.4,0c-0.2,0-0.4,0-0.5,0.1c-0.2,0.1-0.3,0.1-0.4,0.3 c-0.1,0.1-0.2,0.3-0.3,0.4c-0.1,0.2-0.2,0.4-0.3,0.6v4H221v-6.3h0.6c0.1,0,0.2,0,0.2,0.1c0,0,0.1,0.1,0.1,0.2L222,67.8z"></path> <path d="M229.5,67.4c0.3-0.3,0.6-0.5,0.9-0.7c0.3-0.2,0.7-0.3,1.1-0.3c0.3,0,0.6,0.1,0.9,0.2c0.3,0.1,0.5,0.3,0.7,0.5 c0.2,0.2,0.3,0.5,0.4,0.8c0.1,0.3,0.1,0.6,0.1,1v4h-1.1v-4c0-0.5-0.1-0.8-0.3-1.1c-0.2-0.3-0.6-0.4-1-0.4c-0.3,0-0.6,0.1-0.9,0.2 c-0.3,0.2-0.5,0.4-0.8,0.6v4.6h-1.1v-9.1h1.1V67.4z"></path> <path d="M238.7,70c-0.5,0-0.9,0.1-1.3,0.1c-0.4,0.1-0.7,0.1-0.9,0.2c-0.2,0.1-0.4,0.2-0.5,0.4c-0.1,0.1-0.2,0.3-0.2,0.5 c0,0.2,0,0.3,0.1,0.4c0.1,0.1,0.1,0.2,0.2,0.3c0.1,0.1,0.2,0.1,0.3,0.2c0.1,0,0.3,0.1,0.4,0.1c0.2,0,0.4,0,0.5-0.1 c0.2,0,0.3-0.1,0.5-0.2c0.1-0.1,0.3-0.2,0.4-0.3c0.1-0.1,0.3-0.2,0.4-0.4V70z M235.2,67.5c0.3-0.3,0.7-0.6,1.1-0.8 c0.4-0.2,0.8-0.2,1.3-0.2c0.4,0,0.7,0.1,0.9,0.2c0.3,0.1,0.5,0.3,0.7,0.5c0.2,0.2,0.3,0.5,0.4,0.8c0.1,0.3,0.1,0.6,0.1,1v4h-0.5 c-0.1,0-0.2,0-0.2-0.1c-0.1,0-0.1-0.1-0.1-0.2l-0.1-0.6c-0.2,0.2-0.3,0.3-0.5,0.4c-0.2,0.1-0.3,0.2-0.5,0.3 c-0.2,0.1-0.4,0.1-0.6,0.2c-0.2,0-0.4,0.1-0.7,0.1c-0.2,0-0.5,0-0.7-0.1c-0.2-0.1-0.4-0.2-0.6-0.3c-0.2-0.1-0.3-0.3-0.4-0.5 c-0.1-0.2-0.1-0.5-0.1-0.7c0-0.3,0.1-0.5,0.2-0.7c0.1-0.2,0.4-0.4,0.7-0.6c0.3-0.2,0.7-0.3,1.2-0.4c0.5-0.1,1.1-0.2,1.8-0.2v-0.5 c0-0.5-0.1-0.9-0.3-1.1c-0.2-0.2-0.5-0.4-0.9-0.4c-0.3,0-0.5,0-0.7,0.1c-0.2,0.1-0.4,0.1-0.5,0.2c-0.1,0.1-0.3,0.2-0.3,0.2 c-0.1,0.1-0.2,0.1-0.3,0.1c-0.1,0-0.1,0-0.2-0.1c-0.1,0-0.1-0.1-0.1-0.1L235.2,67.5z"></path> <path d="M242.5,67.5c0.1-0.2,0.3-0.3,0.4-0.4c0.2-0.1,0.3-0.2,0.5-0.3c0.2-0.1,0.4-0.2,0.6-0.2c0.2,0,0.4-0.1,0.6-0.1 c0.3,0,0.6,0.1,0.9,0.2c0.3,0.1,0.5,0.3,0.7,0.5c0.2,0.2,0.3,0.5,0.4,0.8c0.1,0.3,0.1,0.6,0.1,1v4h-1.1v-4c0-0.5-0.1-0.8-0.3-1.1 c-0.2-0.3-0.5-0.4-1-0.4c-0.3,0-0.6,0.1-0.9,0.2c-0.3,0.2-0.6,0.4-0.8,0.6v4.6h-1.1v-6.3h0.7c0.2,0,0.3,0.1,0.3,0.2L242.5,67.5z"></path> <path d="M252.5,68.1c-0.2-0.3-0.4-0.5-0.7-0.6c-0.2-0.1-0.5-0.2-0.8-0.2c-0.6,0-1,0.2-1.3,0.6c-0.3,0.4-0.5,1-0.5,1.8 c0,0.4,0,0.8,0.1,1.1c0.1,0.3,0.2,0.5,0.3,0.7c0.1,0.2,0.3,0.3,0.5,0.4c0.2,0.1,0.4,0.1,0.7,0.1c0.4,0,0.7-0.1,1-0.3 c0.3-0.2,0.5-0.4,0.7-0.7V68.1z M253.6,63.7v9.1h-0.7c-0.2,0-0.3-0.1-0.3-0.2l-0.1-0.8c-0.3,0.3-0.6,0.6-0.9,0.8 c-0.3,0.2-0.7,0.3-1.2,0.3c-0.4,0-0.7-0.1-1-0.2c-0.3-0.1-0.5-0.3-0.8-0.6c-0.2-0.3-0.4-0.6-0.5-1c-0.1-0.4-0.2-0.9-0.2-1.4 c0-0.5,0.1-0.9,0.2-1.3c0.1-0.4,0.3-0.7,0.5-1c0.2-0.3,0.5-0.5,0.9-0.7c0.3-0.2,0.7-0.3,1.1-0.3c0.4,0,0.7,0.1,1,0.2 c0.3,0.1,0.5,0.3,0.7,0.5v-3.5H253.6z"></path> <path d="M259,67.6c-0.1,0.1-0.1,0.1-0.2,0.1c-0.1,0-0.1,0-0.2-0.1c-0.1,0-0.2-0.1-0.3-0.1c-0.1-0.1-0.2-0.1-0.4-0.2 c-0.2,0-0.3-0.1-0.6-0.1c-0.2,0-0.4,0-0.5,0.1c-0.1,0-0.3,0.1-0.4,0.2c-0.1,0.1-0.2,0.2-0.2,0.3c-0.1,0.1-0.1,0.2-0.1,0.4 c0,0.2,0,0.3,0.1,0.4c0.1,0.1,0.2,0.2,0.4,0.3c0.2,0.1,0.3,0.2,0.5,0.2c0.2,0.1,0.4,0.1,0.6,0.2c0.2,0.1,0.4,0.1,0.6,0.2 c0.2,0.1,0.4,0.2,0.5,0.3c0.2,0.1,0.3,0.3,0.4,0.5c0.1,0.2,0.1,0.4,0.1,0.6c0,0.3-0.1,0.6-0.2,0.8c-0.1,0.2-0.3,0.5-0.5,0.6 c-0.2,0.2-0.5,0.3-0.7,0.4c-0.3,0.1-0.6,0.2-1,0.2c-0.4,0-0.8-0.1-1.2-0.2c-0.4-0.1-0.7-0.3-0.9-0.6l0.3-0.4 c0-0.1,0.1-0.1,0.1-0.1c0,0,0.1,0,0.2,0c0.1,0,0.1,0,0.2,0.1c0.1,0.1,0.2,0.1,0.3,0.2c0.1,0.1,0.3,0.1,0.4,0.2 c0.2,0.1,0.4,0.1,0.6,0.1c0.2,0,0.4,0,0.6-0.1c0.2-0.1,0.3-0.1,0.4-0.2c0.1-0.1,0.2-0.2,0.2-0.3c0-0.1,0.1-0.3,0.1-0.4 c0-0.2,0-0.3-0.1-0.4c-0.1-0.1-0.2-0.2-0.4-0.3c-0.2-0.1-0.3-0.2-0.5-0.2c-0.2-0.1-0.4-0.1-0.6-0.2c-0.2-0.1-0.4-0.1-0.6-0.2 c-0.2-0.1-0.4-0.2-0.5-0.3c-0.2-0.1-0.3-0.3-0.4-0.5c-0.1-0.2-0.1-0.4-0.1-0.7c0-0.2,0.1-0.5,0.2-0.7c0.1-0.2,0.2-0.4,0.4-0.6 c0.2-0.2,0.4-0.3,0.7-0.4c0.3-0.1,0.6-0.2,1-0.2c0.4,0,0.8,0.1,1.1,0.2c0.3,0.1,0.6,0.3,0.9,0.5L259,67.6z"></path> <path d="M123,40.5c0,0,2.7-6.2,6-11c0,0-2.8-1.6-6.1,1.6c-2.9,2.8-5.2,7.3-6.1,10.5c-0.6,2.2-1.4,5.4-1.4,8.7 c0,2.1,1.3,3.3,1.3,3.3l1.7,1.2c0,0,13.5-21.2,19.9-25c0,0-6.8,11-7.4,17.8c0,0-0.5,1.8,1.7,3.3c2.2,1.6,2.2,0.9,2.2,0.9 s4.5-13.4,14.6-21.7c0,0-5.2,10.3-6.2,15.7c-0.8,4,1,6.4,1,6.4s1,2.6,4.9,2.6c0,0-0.9-7.4,2.3-15.3c2.2-5.5,5-11.9,5-11.9 s-0.7-1.1-2.7-1.4c-1-0.1-3.5-0.1-6.6,2.6c-3.6,3.1-6.5,6.2-10.3,12.6c0,0,4.1-9.5,6.5-13.5c0,0-3.4-3.1-8.5-0.8 C134.7,27.1,128.9,31.1,123,40.5"></path> <path d="M167.5,24.2l2.9-5.7c0,0-3.6-2.3-5.3,0.9C163,23.5,167.5,24.2,167.5,24.2"></path> <path d="M164.1,26.9c0.6,0.1,2.2,0.6,2.2,0.6s-2.9,6.4-4.7,12c-2.2,6.8-3,15.4-3,15.4c-2.7,0-4.2-2.7-4.2-2.7s-2-2-0.9-6.3 c1.5-5.5,4-10.5,5.7-13.9c0.6-1.1,1.2-2.2,1.9-3.4C162,27.4,163.3,26.8,164.1,26.9"></path> <path d="M179.6,38.9c3.2-2.6,18.9-13.5,18.9-13.5s-1-2-6.3-0.8c-5.4,1.2-12.6,8.5-12.6,8.5l-7.4,7.4c1.3-3.3,2.2-5.5,2.7-6.5 c1.3-2.8,9.7-21.1,16.5-30.6c0,0-1.8-1.1-5.2,0c-2.3,0.8-4.8,4.9-5.9,6.9c-1.3,2.3-4.7,8.5-6.7,13c-4.5,10.1-9.4,24.8-9.7,26.7 c-0.2,1.3,0,2.8,0.7,3.6c0.8,0.9,2.1,1.3,2.1,1.3s1.4-3.8,3.1-8.1c1.6-1.3,4.5-3.5,7-5.5c0,0-0.1,4.3,0,6.1 c0.1,2.9,0.8,4.7,1.9,6.4c1.3,1.9,5,1.2,5,1.2s-1.7-4.7-2.5-7.5C180.5,45,179.8,40.2,179.6,38.9"></path> <path d="M221.3,26c0,0,10.6,2.8,21.6,0c0,0,0.4,2.7-0.7,3.8l-19.2,19.7c13.1-4.3,13.5,2.2,13.5,2.2v3.2c-4.1-1.5-12-1.8-21.3,0 c0,0-0.6-2.4,0.2-3.5l19.9-20.4c0,0-5.7,1.6-10.1,1.3c-4.3-0.3-4-3.6-4-3.6V26z"></path> <path d="M111.9,26.3c-2.8-0.4-6.8,0.1-8.6,0.8c-2.6,0.9-5,1.9-8.7,5.7c-3.7,3.8-6.1,8.5-6.1,8.5s-2.5,3.8-2.2,8.2 c0.2,4.4,4,5.2,4,5.2s3.4,1.2,6.6-3.1l9.4-10.4l-0.6,2.5c0,0-1.2,5.3,0.4,8.2c1.6,2.9,4.4,3,4.4,3s-1.7-10.9,7.2-26 c0,0-2.1-0.8-6.6,3.6L90.9,53.7c0,0-2.6-4.7,7.5-16.1c6.9-7.8,13-9.4,16-9.6C115.9,28,115,26.7,111.9,26.3"></path> <path d="M213.4,26.3c-2.8-0.4-6.8,0.1-8.6,0.8c-2.6,1-5,1.9-8.7,5.8c-3.7,3.8-6.1,8.5-6.1,8.5s-2.4,3.8-2.2,8.2 c0.2,4.4,4,5.2,4,5.2s3.4,1.2,6.6-3.1l9.4-10.4l-0.6,2.5c0,0-1.2,5.3,0.4,8.2c1.6,2.9,4.4,3,4.4,3s-1.7-10.9,7.2-26 c0,0-2.1-0.8-6.6,3.6l-20.1,21.3c0,0-2.6-4.7,7.5-16.1c6.9-7.8,13-9.4,16-9.6C217.3,28,216.4,26.8,213.4,26.3"></path> <path d="M260.5,30.3c0-0.7-0.4-1.5-0.7-1.8c-1-1-3.2-2.9-7-2.1c-3.8,0.8-7.8,4.8-7.8,4.8s-5.8,5.9-6.5,12.7 c-0.7,6.8,1.7,9.2,1.7,9.2s1.1,1.7,3.4,1.7c3.9,0,8.4-3.2,15.9-4.1l0-4.1c-2.6-3.2-8,1-9.1,1.7c0,0-6.5,4.5-7.2,4.6 c-0.8,0.1-1.4-0.6-1.4-0.6c-2.1-3.9,0.9-8.2,0.9-8.2s4.4-0.3,10.2-4.1c3.5-2.3,4.6-3.3,5.7-4.8C259.5,33.9,260.5,32.2,260.5,30.3 M251.3,38.1c-2.6,1.6-7.6,3.3-7.6,3.3s2.4-3.8,6.6-7.7c3.6-3.3,8.6-5.1,8.6-5.1S258.4,33.9,251.3,38.1"></path> <path class="st1" d="M67.2,36.1l-6.6,4.4c-0.6,1.2-1.2,2.5-1.8,3.7c-2.1,4.2-4,8.2-5.5,12.4c2,0.5,4.1,0.7,6.3,0.7 c4.1,0,7.9-0.9,11.4-2.4C69.5,49.5,68.2,43.3,67.2,36.1"></path> <path class="st1" d="M80.5,48.2c4.8-5.1,7.8-12,7.8-19.6c0-2.1-0.2-4.1-0.6-6l-11.9,7.9C76.3,33.6,77.8,40.4,80.5,48.2"></path> <path class="st1" d="M83.6,13c-1.5-2.2-3.2-4.2-5.2-6c-1.8,3.1-4.7,8.2-8.6,15.4L83.6,13z"></path> <path class="st1" d="M46.7,53.3c-1.9-4.9,0.3-10.6,0.8-11.7C54.2,25.5,68.1,4.9,70.1,2c-3.2-1.3-6.7-2-10.4-2 C43.9,0,31.1,12.8,31.1,28.6c0,11.3,6.6,21.1,16.1,25.7C47,54,46.8,53.7,46.7,53.3"></path> <path d="M115.8,1.3c0,0-3-2.7-9.3,0C101.4,3.4,95.8,7,92.3,9.8L63.4,29.6C73.3,10.7,78.6,2.2,78.6,2.2S75.7,0.4,72.2,3 c0,0-15.5,22.6-22.6,39.5c-0.9,2.2-2.1,6.6-0.7,10c0.5,1.3,2.2,3.4,2.2,3.4c2-5.8,5-11.4,7.7-17.1L69,32.1c4.2,32.7,12,40,17.2,42 c4.4,1.7,4.8,0.3,4.8,0.3c-12-15.4-17.3-42-17.9-45L115.8,1.3z"></path> <path d="M261.4,26.1v0.6h1.2v3h0.7v-3h1.2v-0.6H261.4z M267.9,26.1l-0.9,2.6l-0.9-2.6h-1v3.6h0.7v-2.9l1,2.9h0.6l1-2.9v2.9h0.7 v-3.6H267.9z"></path> </g> </g> </svg> 