<svg xmlns="http://www.w3.org/2000/svg" xmlns:xlink="http://www.w3.org/1999/xlink" version="1.1" width="108.5005pt" height="129.7504pt" viewBox="0 0 108.5005 129.7504">
<g id="layer_1" data-name="Warstwa 1">
<text fill="#414a15" xml:space="preserve" transform="matrix(1 0 -0 1 1 128.7504)" font-size="19.862" font-family="Georgia"><tspan y="-18.7818" x="19.3351 37.1015 56.768 74.5344">EDEN</tspan></text>
<text fill="#414a15" xml:space="preserve" transform="matrix(1 0 -0 1 1 128.7504)" font-size="6.337" font-family="Gotham"><tspan y="-9.6276" x="27.1967 32.697217 34.706045 38.5659 43.95235 47.9137 52.362276 54.263376 57.9333 63.31975 67.901409 72.90764 77.91387">MI&#x0141;OSZ LORANC</tspan></text>
<path transform="matrix(1,0,0,-1,1,128.7504)" d="M62.2094 110.4582C62.2094 105.6036 61.4197 93.1243 57.7562 89.7905 56.0177 88.2085 54.6216 91.76 54.0377 93.1598 51.5489 99.1267 51.7689 106.6742 49.6769 112.9487 49.3279 113.9953 48.9521 114.9032 48.5079 115.8712 48.0509 116.8671 47.4664 117.6823 47.0789 118.525L43.221 117.54C43.5144 116.9966 43.8871 116.5955 44.3021 116.0323 47.8522 111.217 48.8767 105.3079 48.7315 99.2812 47.958 99.4819 45.3104 100.614 43.2473 101.1971 38.5336 102.5294 36.8515 103.0538 33.6654 106.3474 32.4323 107.6224 31.2219 108.7534 29.7255 109.7558 29.1606 109.5043 28.3456 108.8133 28.0485 108.2755 28.7028 107.949 29.4678 107.856 30.1465 107.4679 32.0326 106.3896 33.1356 104.8107 34.4443 103.1145 31.8458 103.0589 27.5281 104.4609 24.3442 104.347 23.9349 103.629 23.1072 102.7599 22.7568 101.9928 24.0151 102.1541 25.3273 102.4628 26.5878 102.3653 30.011 102.3661 33.914 101.4429 36.9405 100.4842 40.7132 99.2891 42.9335 99.4124 45.9099 97.1753 52.808 91.9911 53.473 84.8018 53.2242 76.5743 52.6963 77.0306 52.2836 78.1671 51.9296 78.7731 50.6591 80.9464 48.9747 82.9315 47.2561 84.6057 46.9182 84.9345 46.8034 85.0374 46.4434 85.4291 46.1177 85.7837 45.8504 85.9292 45.4844 86.2466 43.5711 87.9055 41.6154 89.3273 39.0949 90.3591 33.9282 92.4744 29.9146 92.6736 24.9032 97.0413 23.4575 98.301 23.0199 99.5862 22.0538 101.122 20.1192 98.492 20.7893 98.1145 22.7259 95.9542 26.2726 91.9984 34.6963 89.5768 39.35 86.7949 43.0807 84.5649 45.2477 81.8294 47.569 77.8246 48.8633 75.5915 52.2374 68.3793 52.1776 65.3423 49.2412 70.1782 44.9555 67.7526 41.0304 73.4661 40.5391 74.181 40 75.1184 39.5419 75.9353 36.1658 81.9598 36.542 84.4909 29.2243 89.0813 26.5961 90.7299 21.6014 93.3197 18.5547 94.0513 18.203 93.2896 17.909 92.7859 17.7517 91.7674 17.9759 91.5693 22.1102 89.9164 22.79 89.604 26.9328 87.7 32.963 83.6844 34.914 79.757 34.0002 80.1984 33.8584 80.6267 32.4255 80.9629 27.1837 82.192 22.8447 78.9894 17.7795 85.6885 17.5133 86.0406 17.2902 86.3807 16.9724 86.6336 16.4801 83.6983 15.8349 83.7244 17.619 82.5267 18.8833 81.678 20.5852 80.9853 21.4523 79.7613 20.6266 79.1991 17.2335 78.0908 16.0554 77.8949L16.1651 75.2879 16.9325 75.2227C17.6831 75.3375 18.4124 75.6414 19.0947 75.9322 20.0186 76.326 20.9392 76.7395 21.846 77.1375 23.6492 77.9289 25.738 78.7003 27.9485 78.8519 32.9737 79.1966 36.1721 76.1584 37.7325 72.8983 40.5218 67.0714 41.2707 68.4224 45.5905 65.2025 51.423 60.8547 52.5416 54.2242 49.1241 47.6742 48.4549 46.3918 47.3406 44.4906 46.1041 43.8511 45.5071 43.5421 44.8659 43.8982 44.2678 44.0952 31.5539 48.2837 21.5243 58.7951 19.1455 73.6971 18.8938 73.7167 17.1295 73.1954 15.8462 73.1769 16.3953 66.7877 20.3272 58.6619 24.2206 54.0638 25.6292 52.4001 27.0482 50.72 28.7048 49.2744 35.1746 43.628 44.1879 38.9483 56.0546 38.9483 77.8252 38.9483 96.5435 57.57 95.972 79.4886L95.7464 83.8103C95.1789 83.3193 92.7386 80.5992 92.6291 80.0186 92.5362 79.5249 92.6065 78.2124 92.5798 77.6024 92.0333 65.0585 85.3529 54.2951 75.0563 47.7961 72.1868 45.9848 65.2927 42.8621 61.1178 42.7482 61.1178 49.0252 58.4671 56.0985 62.1927 60.6631 65.2632 64.4253 70.5841 66.5994 75.0277 68.7008 80.3143 71.2006 83.8414 74.1583 87.2314 77.37 88.9413 78.99 90.4969 80.8466 92.2025 82.7643 92.9857 83.6447 93.7511 84.6584 94.5422 85.6131 95.1046 86.2923 94.9484 86.6497 94.792 87.6529 94.6726 88.4174 94.4768 89.1439 94.1964 89.8053 93.7565 89.1431 93.4231 88.3794 92.9957 87.7034 92.5223 86.9547 92.0069 86.2245 91.5103 85.64 90.6667 84.6479 89.1434 82.8992 87.4366 82.5548 87.8204 84.0974 88.4052 85.6168 88.6958 87.215 89.5487 91.9089 89.4308 97.4194 88.2326 101.9843 87.8712 103.3603 87.2152 103.8688 86.512 104.7648 85.8949 105.5514 85.1848 106.5606 84.4517 107.1275 84.6351 105.029 86.6908 101.5713 86.6908 93.9501 86.6908 86.5599 83.2198 79.3888 77.5689 75.0254 76.2554 74.0112 75.0994 73.0361 73.5542 72.0839 68.9389 69.2402 67.9864 69.3133 64.2385 67.3472 63.4847 66.9518 62.708 66.4305 62.0957 65.9429 61.4752 65.4491 60.7374 64.6186 60.1036 64.355 58.271 65.9954 59.201 68.6534 60.5228 70.3826 63.8289 74.7074 67.3991 74.3465 70.4302 86.3898 71.8569 92.058 72.5091 97.6076 75.9319 102.4498 77.2427 104.3042 78.4483 105.5565 80.1527 106.9586 80.8668 107.5459 82.1475 108.246 82.6855 108.8212 82.3912 109.5126 80.6383 110.7666 80.0855 111.0849 78.7513 110.2969 77.3799 108.8765 76.3897 107.7231 72.9227 103.6843 69.9316 99.6829 68.7849 93.909 67.6704 88.2969 65.7493 76.4232 59.3065 74.8755 58.377 76.0808 57.8616 78.7757 58.0572 80.7225 58.2273 82.4119 59.5276 84.2732 60.1943 85.8535 61.5827 89.1434 62.6822 93.2814 63.5794 96.9304 64.2067 99.4822 64.23 100.1611 65.535 102.0696 66.5518 103.5567 67.5037 104.8365 68.5803 106.2539 69.8672 107.9484 74.0279 113.0034 74.5909 114.6878 73.9774 115.2975 72.9916 115.8715 71.9008 116.0294 70.6788 113.027 67.0124 108.0731 64.7569 107.0141L64.9018 110.1847C64.9536 111.8293 64.544 117.5664 63.8306 118.6747 63.0315 118.959 61.7839 119.1626 60.8641 119.1552 61.9106 116.2894 62.2094 113.8453 62.2094 110.4582" fill="#414a14" fill-rule="evenodd"/>
<path transform="matrix(1,0,0,-1,1,128.7504)" d="M84.8537 91.3663C85.3594 94.3464 84.2233 97.2918 82.7266 98.9311 81.9201 99.815 81.2296 100.5072 79.937 101.1895 79.0914 101.6357 77.2021 102.3681 76.0476 102.1958 75.2318 96.4344 79.5733 91.5715 84.8537 91.3663" fill="#73b00b" fill-rule="evenodd"/>
<path transform="matrix(1,0,0,-1,1,128.7504)" d="M60.6883 105.7759C60.9565 109.1874 60.1747 111.4512 58.4436 113.3918 57.2111 114.7734 54.8405 116.7012 51.853 116.5915 51.5217 113.0913 52.3993 111.0594 54.0609 109.0125 55.1897 107.6221 57.7925 105.7408 60.6883 105.7759" fill="#73b00b" fill-rule="evenodd"/>
<path transform="matrix(1,0,0,-1,1,128.7504)" d="M45.2806 101.8168C46.1659 104.9666 46.5746 106.8908 45.0493 109.9587 44.1505 111.7675 41.9513 114.1044 39.6278 114.6112 38.8043 111.4617 38.2589 109.5429 39.8665 106.4103 40.5369 105.1033 41.1403 104.5037 42.0032 103.638 42.5735 103.0657 44.1524 101.9778 45.2806 101.8168" fill="#73b00b" fill-rule="evenodd"/>
<path transform="matrix(1,0,0,-1,1,128.7504)" d="M19.7895 71.3134C23.7631 69.5154 27.1959 69.1492 30.9934 72.3538 31.5867 72.8544 32.8051 74.255 33.135 75.2593 31.4796 76.7999 27.4524 76.9561 25.0563 76.1043 23.7331 75.6337 22.7426 74.939 21.8934 74.2226 21.3069 73.7283 20.122 72.2982 19.7895 71.3134" fill="#3d8103" fill-rule="evenodd"/>
<path transform="matrix(1,0,0,-1,1,128.7504)" d="M76.2446 75.1842C76.9025 75.6034 77.7597 77.3504 78.0829 78.3289 79.8755 83.759 75.9969 88.687 74.4712 88.8968 70.7953 84.363 72.2157 77.7832 76.2446 75.1842" fill="#3d8103" fill-rule="evenodd"/>
<path transform="matrix(1,0,0,-1,1,128.7504)" d="M78.7351 68.4592C80.968 67.1899 83.3193 66.4328 86.3269 67.3537 88.7839 68.106 90.726 69.8117 91.6285 71.712 90.2894 73.3833 84.3086 74.2731 80.879 71.1703 80.2925 70.6399 79.0634 69.4154 78.7351 68.4592" fill="#3d8103" fill-rule="evenodd"/>
<path transform="matrix(1,0,0,-1,1,128.7504)" d="M77.2611 54.4141C77.3291 57.3106 76.3583 59.398 74.9548 60.8723 73.9091 61.971 71.388 63.517 68.9675 63.2999 68.1585 59.351 71.7718 54.5051 77.2611 54.4141" fill="#3d8103" fill-rule="evenodd"/>
<path transform="matrix(1,0,0,-1,1,128.7504)" d="M59.1029 94.2253C60.1183 96.4276 60.6455 98.3874 59.6452 101.0894 58.9825 102.8792 57.2012 104.9964 55.5089 105.4964 53.0561 102.4628 54.7722 95.6169 59.1029 94.2253" fill="#73b00b" fill-rule="evenodd"/>
<path transform="matrix(1,0,0,-1,1,128.7504)" d="M73.6211 65.2997C74.0239 63.6052 76.2537 61.772 77.9083 61.0957 80.3974 60.0783 82.6237 60.4735 84.8197 61.5056 84.4665 63.2744 82.1075 65.0942 80.5297 65.7672 78.5806 66.5989 75.1569 66.5728 73.6211 65.2997" fill="#3d8103" fill-rule="evenodd"/>
<path transform="matrix(1,0,0,-1,1,128.7504)" d="M35.6941 92.717C35.8906 95.6072 35.0583 97.49 33.6186 99.0689 32.0851 100.751 28.6546 102.2706 27.9763 101.5727 27.5451 101.1294 28.12 98.5493 28.3198 98.0016 28.743 96.8426 29.2476 96.103 29.8888 95.3422 30.7879 94.2761 33.3057 92.4131 35.6941 92.717" fill="#73b00b" fill-rule="evenodd"/>
<path transform="matrix(1,0,0,-1,1,128.7504)" d="M37.3476 96.6787C37.7583 94.4325 42.4911 90.0034 48.5439 92.8684 47.592 96.7022 40.8736 99.2923 37.3476 96.6787" fill="#73b00b" fill-rule="evenodd"/>
<path transform="matrix(1,0,0,-1,1,128.7504)" d="M27.2857 65.1325C31.9921 62.4229 37.7254 65.6796 38.5115 69.0146 36.3146 69.6694 34.8389 70.6351 31.542 69.3476 29.7998 68.6673 27.7393 66.8191 27.2857 65.1325" fill="#3d8103" fill-rule="evenodd"/>
<path transform="matrix(1,0,0,-1,1,128.7504)" d="M34.3987 57.5674C40.2849 57.0713 43.7579 62.2395 43.2329 65.2589 37.7155 65.6269 34.0041 61.1909 34.3987 57.5674" fill="#3d8103" fill-rule="evenodd"/>
<path transform="matrix(1,0,0,-1,1,128.7504)" d="M63.5576 52.0798C66.4359 53.4583 67.6227 58.9122 65.0582 61.4974 63.7696 60.8287 62.5779 59.2308 62.221 57.3661 61.861 55.4859 62.3679 52.9963 63.5576 52.0798" fill="#3d8103" fill-rule="evenodd"/>
<path transform="matrix(1,0,0,-1,1,128.7504)" d="M83.3672 84.09C83.7054 86.6554 83.412 87.7467 82.2087 89.5445 81.4819 90.6304 79.8962 91.8507 77.8745 92.0599 77.4009 88.9852 78.3337 86.5386 80.7885 84.9852 81.502 84.534 82.4031 84.1995 83.3672 84.09" fill="#73b00b" fill-rule="evenodd"/>
<path transform="matrix(1,0,0,-1,1,128.7504)" d="M27.1329 82.1163C27.4706 85.0796 24.351 88.5589 19.6937 88.2374 19.7357 86.2523 20.9044 84.3985 21.8721 83.6425 23.3067 82.5219 24.7045 81.8977 27.1329 82.1163" fill="#73b00b" fill-rule="evenodd"/>
<path transform="matrix(1,0,0,-1,1,128.7504)" d="M45.0045 53.7758C46.1259 54.1939 47.4996 56.173 47.8474 57.8322 48.3437 60.2005 47.5628 61.6827 46.601 63.2092 43.5438 61.8284 42.4996 56.283 45.0045 53.7758" fill="#3d8103" fill-rule="evenodd"/>
<path transform="matrix(1,0,0,-1,1,128.7504)" d="M51.6969 83.018C52.2592 85.227 52.253 86.7172 51.2178 88.5665 50.5783 89.7089 48.9061 91.3592 47.181 91.5588 46.6773 89.299 46.6206 88.0078 47.7111 86.0199 48.3761 84.8078 49.9076 83.3601 51.6969 83.018" fill="#73b00b" fill-rule="evenodd"/>
<path transform="matrix(1,0,0,-1,1,128.7504)" d="M64.4202 97.361C64.4168 95.7132 64.9877 94.4121 65.713 93.4262 66.9631 93.9719 68.2554 95.5956 68.6662 97.4322 69.0883 99.32 68.6194 101.7207 67.5139 102.8217 66.0027 102.2494 64.4253 99.7829 64.4202 97.361" fill="#73b00b" fill-rule="evenodd"/>
<path transform="matrix(1,0,0,-1,1,128.7504)" d="M49.4291 70.5611C49.5349 72.572 48.2083 74.2005 47.2606 75.0611 45.902 76.2953 44.3531 76.8118 41.9825 76.6281 42.1515 73.0505 45.4314 69.9012 49.4291 70.5611" fill="#3d8103" fill-rule="evenodd"/>
<path transform="matrix(1,0,0,-1,1,128.7504)" d="M67.7962 70.3392C69.2844 70.6277 70.6932 72.3379 71.2794 73.6767 72.3138 76.0391 71.7239 77.3274 71.081 79.3783 69.6841 79.0478 68.1276 77.3067 67.5933 76.0022 66.6933 73.806 67.0263 72.3506 67.7962 70.3392" fill="#3d8103" fill-rule="evenodd"/>
<path transform="matrix(1,0,0,-1,1,128.7504)" d="M60.1396 77.4309C61.5569 77.7365 63.057 79.4996 63.6109 80.7956 64.6047 83.1209 64.0942 84.3925 63.413 86.4587 61.9328 86.1364 60.5296 84.4503 59.94 83.1095 58.919 80.7885 59.487 79.458 60.1396 77.4309" fill="#3d8103" fill-rule="evenodd"/>
<path transform="matrix(1,0,0,-1,1,128.7504)" d="M39.8205 77.0074C40.919 77.618 41.8844 79.5818 41.9896 80.9926 42.1282 82.8533 41.3765 84.6445 40.3662 85.4303 39.3738 84.4571 38.4199 83.554 38.2351 81.5026 38.0716 79.6847 38.8131 77.7555 39.8205 77.0074" fill="#3d8103" fill-rule="evenodd"/>
<path transform="matrix(1,0,0,-1,1,128.7504)" d="M91.3873 86.9366C94.5326 89.2576 93.4481 93.6507 91.9329 94.722 91.0545 94.2945 90.1012 92.7386 89.922 91.2084 89.725 89.5243 90.4329 87.582 91.3873 86.9366" fill="#73b00b" fill-rule="evenodd"/>
<path transform="matrix(1,0,0,-1,1,128.7504)" d="M84.7148 99.483C85.1199 101.2779 85.2466 102.5206 84.3378 104.0907 83.7723 105.067 82.5803 106.2845 81.1474 106.5376 80.7474 104.826 80.6074 103.4161 81.4992 101.9336 82.1234 100.8964 83.164 99.7509 84.7148 99.483" fill="#73b00b" fill-rule="evenodd"/>
<path transform="matrix(1,0,0,-1,1,128.7504)" d="M74.1214 106.4276C75.1122 106.8111 76.1936 108.2633 76.5289 109.6265 76.8869 111.0801 76.5043 113.3787 75.5626 114.0968 73.245 112.9054 72.1692 109.1477 74.1214 106.4276" fill="#73b00b" fill-rule="evenodd"/>
<path transform="matrix(1,0,0,-1,1,128.7504)" d="M66.9501 110.05C69.3147 111.083 70.456 115.24 68.4689 117.7177 67.4702 117.4054 66.3792 115.7854 66.0764 114.4962 65.5676 112.3288 66.2927 111.4954 66.9501 110.05" fill="#73b00b" fill-rule="evenodd"/>
</g>
</svg>
